<svg xmlns="http://www.w3.org/2000/svg" width="96" height="28" viewBox="0 0 96 28" fill="none">
  <rect width="96" height="28" rx="6" fill="#111827"/>
  <g fill="#F9FAFB">
    <path d="M16 20c-3.866 0-7-3.134-7-7s3.134-7 7-7c2.485 0 4.68 1.262 5.96 3.173l-2.46 1.3C18.7 9.52 17.43 9 16 9c-2.761 0-5 2.239-5 5s2.239 5 5 5c2.15 0 3.98-1.353 4.67-3.25H16v-2h7c.02.248.03.5.03.75C23.03 16.866 19.866 20 16 20Z"/>
    <path d="M33 8h3l3 4 3-4h3l-4 5 4 5h-3l-3-4-3 4h-3l4-5-4-5Z"/>
    <path d="M50 21V8h7c2.209 0 4 1.343 4 3 0 1.03-.73 1.94-1.86 2.5 1.2.51 1.86 1.47 1.86 2.5 0 1.657-1.791 3-4 3h-7Zm3-8h3c.552 0 1-.448 1-1s-.448-1-1-1h-3v2Zm0 5h3c1.105 0 2-.448 2-1s-.895-1-2-1h-3v2Z"/>
  </g>
</svg>
